<?xml version="1.0" encoding="utf-8"?>
<!-- Generator: Adobe Illustrator 22.0.0, SVG Export Plug-In . SVG Version: 6.00 Build 0)  -->
<svg version="1.1" id="Layer_1" xmlns:sketch="http://www.bohemiancoding.com/sketch/ns"
	 xmlns="http://www.w3.org/2000/svg" xmlns:xlink="http://www.w3.org/1999/xlink" x="0px" y="0px" viewBox="0 0 28.8 28.8"
	 style="enable-background:new 0 0 28.8 28.8;" xml:space="preserve">
<style type="text/css">
	.st0{fill:none;stroke:#000000;stroke-miterlimit:10;}
</style>
<title>business_010-money_search-view-investigate-find</title>
<desc>Created with Sketch.</desc>
<g sketch:type="MSPage">
	<g transform="translate(-450.000000, -45.000000)" sketch:type="MSArtboardGroup">
		<g transform="translate(454.000000, 49.000000)" sketch:type="MSLayerGroup">
			<path sketch:type="MSShapeGroup" class="st0" d="M15,11.7c0.9-1.5,1.4-3.2,1.4-5.1c0-5.4-4.4-9.7-9.7-9.7s-9.7,4.4-9.7,9.7
				s4.4,9.7,9.7,9.7c1.9,0,3.6-0.5,5.1-1.4l8.6,8.6c0.5,0.5,1.3,0.5,1.8,0l1.4-1.4c0.5-0.5,0.5-1.3,0-1.8L15,11.7z M6.6,14.1
				c4.1,0,7.5-3.3,7.5-7.5s-3.3-7.5-7.5-7.5s-7.5,3.3-7.5,7.5S2.5,14.1,6.6,14.1z"/>
			<path sketch:type="MSShapeGroup" d="M6,12h1.4l0-1.1c1.3-0.3,2.1-1.2,2.1-2.4c0-1.2-0.7-1.8-2.1-2.5C7.3,6,6.9,5.8,6.9,5.8
				C6,5.4,5.7,5.2,5.7,4.8C5.7,4.4,6.2,4,6.8,4c0.4,0,0.7,0.1,1.1,0.3c0.2,0.1,0.3,0.2,0.4,0.3l0.3,0.3l0.8-1.5L9.2,3.2
				C9.1,3.1,8.9,3,8.6,2.8C8.3,2.6,7.9,2.5,7.4,2.4l0-1.1H6l0,1.1C4.8,2.7,4,3.7,4,4.8C4,6,4.7,6.6,6.1,7.2c0.1,0,0.4,0.2,0.5,0.2
				c0.9,0.4,1.2,0.7,1.2,1.1c0,0.5-0.4,0.8-1,0.8C6.3,9.3,5.9,9.2,5.5,9C5.3,8.8,5.1,8.7,5,8.6L4.8,8.4l-1,1.3l0.2,0.2
				c0.1,0.1,0.4,0.4,0.7,0.6c0.4,0.2,0.8,0.4,1.3,0.5L6,12z"/>
		</g>
	</g>
</g>
<text transform="matrix(1 0 0 1 -0.6 41.7125)" style="font-family:'Arial-BoldMT'; font-size:5px;">Created by Pham Thi Dieu Linh</text>
<text transform="matrix(1 0 0 1 -0.6 46.7125)" style="font-family:'Arial-BoldMT'; font-size:5px;">from the Noun Project</text>
</svg>
